<?xml version="1.0" encoding="utf-8"?>
<!-- Designed by Vexels.com - 2019 All Rights Reserved - https://vexels.com/terms-and-conditions/  -->
<svg version="1.1" id="Layer_1" xmlns="http://www.w3.org/2000/svg" xmlns:xlink="http://www.w3.org/1999/xlink" x="0px" y="0px"
	 viewBox="0 0 1200 1200" enable-background="new 0 0 1200 1200" xml:space="preserve">
<path fill="#1D1E1E" d="M499.656,215.182c0,0,2.612-28.728-26.769-48.315c0,0-5.876-29.381-20.893-33.951
	c0,0-2.612-28.074-12.406-43.092c-35.384-54.258-123.395-50.666-162.482-3.818c-20.715,24.828-30.471,57.068-35.355,89.032
	c-5.195,33.995-5.365,68.739-0.649,102.806c3.308,23.883,16.219,45.63,19.035,69.611c3.121,26.576-10.758,45.791-24.234,67.434
	c-30.095,48.331-50.932,128.06-28.099,183.533c17.909,43.509,34.979,86.286,59.734,126.564c8.465,13.773,17.71,26.993,31.484,35.832
	c14.104,9.05,31.866,11.425,43.92,23.834c13.866,14.275,16.622,35.55,29.587,50.588c14.658,17.001,36.872,30.196,57.006,39.526
	c33.638,15.597,27.302,62.6,17.991,91.109c-13.342,40.852-39.58,74.127-86.008,72.801c-19.868-0.567-39.518-5.264-59.39-4.851
	c-4.562,0.095-9.317,0.521-13.206,2.908c-4.085,2.507-5.931,6.559-4.935,11.043c4.635-3.099,9.243-1.594,13.638-2.893
	c-0.213,2.064-0.409,5.524,0.938,7.32c1.959,2.612,9.794,5.223,13.058,5.876c3.265,0.653,3.265,0.653,3.265,0.653l-2.612,5.223
	c0,0-13.058,20.893-3.265,35.257c9.794,14.364,4.57,3.917,4.57,3.917s-1.283-15.392,2.508-16.302
	c19.85-4.763,40.487-3.909,60.425-8.058c32.847-6.848,43.502-28.1,66.624,5.353c1.74,2.517,3.678,5.188,6.58,6.156
	c2.456,0.82,5.13,0.254,7.719,0.278c6.114,0.057,12.055,3.765,14.795,9.23c-0.025-0.049-0.537-9.275-1.583-11.943
	c-1.876-4.784-7.566-9.958-10.818-14.096l-2.612-3.265l-3.265-9.141c0,0,3.265-7.835,5.223-10.446s3.264-9.794,13.06-8.488
	c10.656,1.421,21.446,6.616,31.944,7.008c7.798,0.291,16.641-7.443,12.924-14.302c0.52,0.959,13.66,0.614,15.346,0.611
	c-0.163-6.211-4.028-11.093-10.376-12.818c-9.574-2.602-22.465,1.656-32.211,3.179c-14.397,2.249-30.214,2.54-29.741-17.615
	c0.227-9.676,5.417-18.436,10.288-26.8c21.325-36.621,30.522-96.1,75.495-104.824c2.293-0.445,4.707-0.883,6.923-0.146
	c2.528,0.841,4.318,3.043,5.961,5.14c12.739,16.249,25.597,32.405,37.984,48.922c5.29,7.692,17.453,80.829,17.895,83.497
	c2.158,13.017,6.551,22.035,1.528,35.583c-10.54,28.427-33.112,37.295-61.034,38.719c-11.708,0.597-23.636-0.054-34.958,2.984
	c-11.322,3.038-22.321,10.786-25.125,22.168c6.214-0.943,12.561-3.599,18.233-5.802c0.977,1.726,2.23,5.121,3.972,6.172
	c4.57,2.757,15.017,2.467,22.884-0.01c17.416-5.495,40.975-8.305,59.093-9.75c25.972-2.072,8.797,33.482,4.96,45.677
	c2.658-0.413,15.356-4.473,14.348-8.247c0,0,1.221,4.57,5.138,2.234c3.917-2.336,19.178-14.81,18.077-22.61
	c-1.101-7.801-2.815-24.776-2.815-24.776s3.253-6.529,10.318,1.959c7.063,8.486,12.282,7.835,24.03,13.054
	c14.438,6.414,36.694,15.535,52.832,13.596c6.187-0.743,11.988-3.497,18.163-4.335c6.447-0.874,12.038,1.014,15.974,6.212
	c0.755-4.779-0.759-9.883-4.37-13.495c-6.752-6.755-19.532-9.248-28.36-11.671c-21.692-5.954-63.822-9.436-75.231-32.742
	c-5.114-10.446-6.42-27.422-6.42-27.422s6.419-71.154,6.42-71.166c1.819-20.17,5.997-44.124,11.545-64.47
	c5.404-19.819,13.102-53.565,36.596-36.126c17.949,13.323,41.656,15.122,63.268,16.372c15.914,0.921,34.121,2.616,49.881-0.565
	c16.603-3.351,34.435-13.57,48.402,3.178c18.898,22.624,69.169,19.543,95.973,22.849c12.748,1.572,32.002,9.626,43.895,2.822
	c-14.689-9.03-170.154-123.94-155.948-136.99c26.439-24.285,48.51-45.705,29.371-80.229c-13.02-23.486-33.446-46.343-54.582-62.922
	c-17.062-13.382-12.184-23.08-22.687-40.829c-10.777-18.212-17.007-29.741-21.358-50.21c-3.627-17.059-18.211-26.931-28.804-39.458
	c-10.856-12.839-16.074-26.589-23.035-41.661c-12.327-26.691-38.471-58.043-65.227-70.885
	c-32.561-15.629-91.103-45.548-91.405-45.703c-28.643-14.639-56.346-31.573-80.532-52.911
	c-18.986-16.751-56.579-49.805-56.579-77.67c0-11.752,13.058-14.364,22.199-14.364s27.422,6.529,27.422,6.529L499.656,215.182z"/>
</svg>
