<svg id="Layer_1" data-name="Layer 1" xmlns="http://www.w3.org/2000/svg" viewBox="0 0 249.54 50">
  <defs>
    <style>
      .cls-1 {
        font-size: 30px;
        font-family: Georgia;
      }

      .cls-1, .cls-2 {
        fill: #006837;
      }
    </style>
  </defs>
  <title>logo1</title>
  <text class="cls-1" transform="translate(0 33.81)">LOEW</text>
  <text class="cls-1" transform="translate(175.99 33.81)">SETT</text>
  <path class="cls-2" d="M127,72.51a2.46,2.46,0,0,0-1.34-2.2s-.29-1.33-1-1.54a5.08,5.08,0,0,0-.61-2c-1.76-2.47-6.14-2.3-8.09-.17a7.76,7.76,0,0,0-1.76,4,14.7,14.7,0,0,0,0,4.68c.16,1.08.81,2.07,1,3.16s-.54,2.08-1.21,3.07c-1.5,2.19-2.53,5.82-1.4,8.34a37.71,37.71,0,0,0,3,5.75A5.09,5.09,0,0,0,117,97.31a11.15,11.15,0,0,1,2.19,1.08c.69.65.82,1.62,1.47,2.3a8.39,8.39,0,0,0,2.84,1.8c1.67.71,1.36,2.84.89,4.14-.66,1.86-2,3.37-4.28,3.31-1,0-2-.24-2.95-.22a1.33,1.33,0,0,0-.66.13.45.45,0,0,0-.25.5c.23-.14.46-.07.68-.13a.47.47,0,0,0,0,.33,1.58,1.58,0,0,0,.65.27l.16,0-.13.24s-.65,1-.16,1.6.23.18.23.18-.07-.7.12-.74c1-.22,2-.18,3-.37,1.63-.31,2.16-1.28,3.31.25a.81.81,0,0,0,.33.28,1.68,1.68,0,0,0,.39,0,.84.84,0,0,1,.73.42,3.24,3.24,0,0,0-.08-.55,3.17,3.17,0,0,0-.54-.64l-.13-.14-.16-.42a2.7,2.7,0,0,1,.26-.47c.1-.12.16-.45.65-.39s1.07.3,1.59.32.83-.34.64-.65a4.67,4.67,0,0,0,.77,0,.62.62,0,0,0-.52-.59,4.61,4.61,0,0,0-1.6.15c-.72.1-1.5.11-1.48-.8a2.52,2.52,0,0,1,.51-1.22c1.06-1.67,1.52-4.37,3.76-4.77a.65.65,0,0,1,.34,0,.69.69,0,0,1,.3.23c.63.74,1.27,1.47,1.89,2.22a28,28,0,0,1,.89,3.8,2.5,2.5,0,0,1,.08,1.62c-.53,1.29-1.65,1.69-3,1.76a8.4,8.4,0,0,0-1.74.13,1.64,1.64,0,0,0-1.25,1,4.74,4.74,0,0,0,.91-.26.77.77,0,0,0,.19.28,1.91,1.91,0,0,0,1.14,0,16.19,16.19,0,0,1,2.94-.45c1.3-.09.44,1.53.25,2.08.13,0,.76-.2.71-.37a.17.17,0,0,0,.26.1c.19-.11.95-.68.9-1s-.14-1.13-.14-1.13.16-.29.51.09.61.36,1.2.6a6.3,6.3,0,0,0,2.63.61c.31,0,.59-.16.9-.19a.84.84,0,0,1,.8.28.68.68,0,0,0-.22-.61,3.46,3.46,0,0,0-1.41-.54c-1.08-.27-3.18-.42-3.75-1.48a4.11,4.11,0,0,1-.32-1.25l.32-3.23a16.26,16.26,0,0,1,.58-2.94c.27-.9.65-2.43,1.82-1.64a6.14,6.14,0,0,0,3.15.75,10.82,10.82,0,0,0,2.48,0c.83-.15,1.71-.62,2.41.15.94,1,3.44.88,4.78,1,.63.08,1.59.44,2.18.13-.73-.41-8.47-5.63-7.76-6.22,1.31-1.11,2.41-2.08,1.46-3.65A10.13,10.13,0,0,0,143,91.57c-.84-.61-.6-1-1.12-1.86a6.43,6.43,0,0,1-1.07-2.28c-.18-.77-.9-1.22-1.43-1.79a7.71,7.71,0,0,1-1.15-1.9A7.47,7.47,0,0,0,135,80.52c-1.62-.71-4.54-2.07-4.55-2.08a19,19,0,0,1-4-2.4c-.94-.76-2.82-2.27-2.82-3.53,0-.54.65-.65,1.11-.65a6.5,6.5,0,0,1,1.36.29Z" transform="translate(0 -65)"/>
</svg>
